<svg width="124" height="37" viewBox="0 0 124 37" fill="none" xmlns="http://www.w3.org/2000/svg">
<path d="M32.6839 5.22527L30.8429 15.5636C30.8391 15.5843 30.8405 15.6057 30.8469 15.6256C30.853 15.6455 30.8641 15.6631 30.8786 15.6767C30.8932 15.6903 30.9107 15.6993 30.9294 15.7028C30.9482 15.7063 30.9675 15.7042 30.9852 15.6966L32.9534 14.8742C32.9581 14.9045 32.9629 14.9359 32.9673 14.9649C33.4399 18.2669 33.0936 21.6492 31.9655 24.7497C30.8372 27.8501 28.9697 30.5519 26.5628 32.5657C24.1558 34.5794 21.3002 35.8294 18.3015 36.1816C15.3031 36.5339 12.2746 35.9752 9.54047 34.5652C12.4074 36.3281 15.6632 37.1627 18.937 36.9738C22.2108 36.7848 25.371 35.5803 28.0573 33.497C30.7438 31.4138 32.8484 28.5359 34.1315 25.191C35.4145 21.8462 35.8245 18.169 35.3144 14.5785L37.5812 14.7825C37.6005 14.7842 37.6196 14.78 37.637 14.7705C37.6542 14.761 37.6688 14.7465 37.6792 14.7285C37.6897 14.7105 37.6953 14.6897 37.696 14.6684C37.6964 14.647 37.6919 14.6259 37.6824 14.6072L32.8807 5.18951C32.8699 5.16861 32.8537 5.15185 32.8341 5.14149C32.8145 5.13114 32.7925 5.12767 32.7711 5.13156C32.7496 5.13545 32.7299 5.14652 32.7142 5.16326C32.6986 5.18001 32.688 5.20166 32.6839 5.22527Z" fill="url(#paint0_linear)"/>
<path d="M29.1677 26.7938C27.6806 28.891 25.7707 30.5724 23.5917 31.7031C21.4124 32.8339 19.0245 33.3826 16.6196 33.3051C14.2145 33.2277 11.8594 32.5263 9.74306 31.2573C7.62674 29.9881 5.80817 28.1866 4.43332 25.9973C3.05845 23.8082 2.16556 21.292 1.82627 18.6509C1.48701 16.0099 1.71079 13.3175 2.4797 10.7897C3.24859 8.26185 4.54118 5.96906 6.25376 4.09528C7.96633 2.22149 10.0512 0.818882 12.3411 0C9.39035 0.804082 6.70287 2.51152 4.58522 4.92755C2.46756 7.34358 1.005 10.3709 0.364373 13.6642C-0.276254 16.9574 -0.069148 20.384 0.962066 23.553C1.99329 26.7222 3.80708 29.5059 6.19655 31.5871C8.58602 33.6683 11.4549 34.9629 14.476 35.3232C17.4971 35.6835 20.5487 35.0952 23.2828 33.6252C26.0169 32.1551 28.3232 29.8628 29.9388 27.0094C31.5542 24.1561 32.4139 20.8567 32.4198 17.4877C32.2027 20.8814 31.0696 24.124 29.1677 26.7938Z" fill="url(#paint1_linear)"/>
<path d="M25.784 8.77298C24.8358 10.1121 23.7575 11.3313 22.5685 12.4088C22.5565 12.4198 22.5467 12.4336 22.5401 12.4492C22.5334 12.4649 22.5299 12.482 22.5299 12.4993V29.2276C22.5299 29.3622 22.4914 29.4933 22.4198 29.602C22.3482 29.7108 22.2473 29.7914 22.1318 29.8324L22.1194 29.8368C22.0338 29.8673 21.9429 29.8748 21.8541 29.8589C21.7652 29.8431 21.681 29.804 21.6084 29.7453C21.5357 29.6864 21.4766 29.6095 21.4358 29.5206C21.395 29.4316 21.3738 29.3333 21.3738 29.2336V13.6376C21.3738 13.6161 21.3686 13.5951 21.3587 13.5767C21.3487 13.5584 21.3343 13.5434 21.3171 13.5335C21.3 13.5236 21.2807 13.519 21.2615 13.5204C21.2422 13.5218 21.2235 13.529 21.2077 13.5413C19.6334 14.7432 17.9171 15.6986 16.1074 16.3805C16.0866 16.3883 16.0684 16.4032 16.0554 16.423C16.0426 16.4429 16.0357 16.4668 16.0357 16.4913V30.0015C16.0357 30.0953 16.0169 30.188 15.9807 30.2727C15.9445 30.3575 15.8918 30.4323 15.8266 30.4919C15.7611 30.5515 15.6847 30.5941 15.6027 30.617C15.5206 30.6398 15.435 30.6423 15.352 30.6241L15.3296 30.6191C15.2002 30.5908 15.0837 30.5133 15 30.4001C14.9164 30.2869 14.8709 30.1451 14.8712 29.9987C14.8742 28.5441 14.8772 26.5856 14.8794 26.587V16.9509C14.8794 16.933 14.8757 16.9152 14.8685 16.8991C14.8613 16.883 14.8509 16.8689 14.838 16.858C14.8252 16.8471 14.8102 16.8396 14.7943 16.8361C14.7784 16.8326 14.762 16.8332 14.7463 16.8379L14.694 16.8532C13.2177 17.2833 11.9114 18.2434 10.9791 19.5836C10.0469 20.924 9.54122 22.5688 9.5411 24.2612V26.4801C9.54138 26.604 9.50887 26.7255 9.4476 26.8291C9.38633 26.9328 9.29899 27.0143 9.19639 27.0636C9.09377 27.1126 8.98041 27.1275 8.8703 27.106C8.76021 27.0846 8.65819 27.0278 8.5769 26.9426C6.30936 24.5262 4.86758 21.3129 4.49718 17.85C4.12677 14.3872 4.85064 10.8891 6.54549 7.95159C8.24035 5.01412 10.8013 2.81905 13.7921 1.74033C16.7829 0.661598 20.0184 0.765949 22.9477 2.03561C20.6414 0.819977 18.0837 0.310723 15.54 0.560674C12.9963 0.810622 10.5593 1.81067 8.4817 3.45706C6.40414 5.10346 4.76174 7.33623 3.72489 9.92374C2.68804 12.5112 2.29451 15.3592 2.58512 18.1723C2.87574 20.9852 3.83992 23.6608 5.37765 25.9212C6.91537 28.1819 8.97059 29.9449 11.3301 31.0278C13.6897 32.1106 16.2676 32.4737 18.7963 32.0796C21.3252 31.6852 23.7126 30.5478 25.7113 28.7854C26.4085 28.252 27.059 27.6468 27.6536 26.9779L27.7161 26.9037C27.8145 26.7867 27.8692 26.6324 27.8689 26.4722V5.83866C27.8689 5.83866 27.8689 5.76506 27.8689 5.66744C27.8691 5.64134 27.8613 5.61593 27.8471 5.5952C27.8327 5.57448 27.8126 5.55962 27.7899 5.55298C27.7671 5.54634 27.7429 5.54828 27.7213 5.5585C27.6996 5.56872 27.6818 5.58663 27.6702 5.60943C27.1203 6.7192 26.4895 7.77724 25.784 8.77298Z" fill="url(#paint2_linear)"/>
<path d="M47.94 27.2077C46.12 27.2077 44.534 26.8264 43.182 26.0637C41.8473 25.2837 40.816 24.1917 40.088 22.7877C39.36 21.3664 38.996 19.7024 38.996 17.7957C38.996 15.889 39.36 14.2337 40.088 12.8297C40.816 11.4084 41.8473 10.3164 43.182 9.55369C44.534 8.79103 46.12 8.40969 47.94 8.40969C49.76 8.40969 51.3373 8.79103 52.672 9.55369C54.024 10.3164 55.064 11.4084 55.792 12.8297C56.52 14.2337 56.884 15.889 56.884 17.7957C56.884 19.7024 56.52 21.3664 55.792 22.7877C55.064 24.1917 54.024 25.2837 52.672 26.0637C51.3373 26.8264 49.76 27.2077 47.94 27.2077ZM47.94 24.0617C49.4653 24.0617 50.6613 23.5244 51.528 22.4497C52.412 21.375 52.854 19.8237 52.854 17.7957C52.854 15.7677 52.4207 14.225 51.554 13.1677C50.6873 12.093 49.4827 11.5557 47.94 11.5557C46.3973 11.5557 45.1927 12.093 44.326 13.1677C43.4767 14.225 43.052 15.7677 43.052 17.7957C43.052 19.8237 43.4853 21.375 44.352 22.4497C45.2187 23.5244 46.4147 24.0617 47.94 24.0617ZM67.6768 13.8957C69.2022 13.8957 70.3375 14.3464 71.0828 15.2477C71.8282 16.1317 72.2008 17.475 72.2008 19.2777V25.2837C72.2008 25.8557 72.0188 26.3064 71.6548 26.6357C71.3082 26.965 70.8315 27.1297 70.2248 27.1297C69.6182 27.1297 69.1415 26.965 68.7948 26.6357C68.4482 26.3064 68.2748 25.8557 68.2748 25.2837V19.4597C68.2748 18.593 68.1102 17.9604 67.7808 17.5617C67.4688 17.163 66.9748 16.9637 66.2988 16.9637C65.4842 16.9637 64.8255 17.2237 64.3228 17.7437C63.8375 18.2637 63.5948 18.957 63.5948 19.8237V25.2837C63.5948 25.8557 63.4215 26.3064 63.0748 26.6357C62.7282 26.965 62.2515 27.1297 61.6448 27.1297C61.0382 27.1297 60.5528 26.965 60.1888 26.6357C59.8422 26.3064 59.6688 25.8557 59.6688 25.2837V15.7417C59.6688 15.2044 59.8508 14.771 60.2148 14.4417C60.5962 14.1124 61.0815 13.9477 61.6708 13.9477C62.2082 13.9477 62.6415 14.1124 62.9708 14.4417C63.3175 14.7537 63.4908 15.161 63.4908 15.6637V16.0277C63.9415 15.3344 64.5222 14.8057 65.2328 14.4417C65.9608 14.0777 66.7755 13.8957 67.6768 13.8957ZM80.3894 27.1037C79.7827 27.1037 79.2887 26.9217 78.9074 26.5577C78.5434 26.1937 78.3614 25.7084 78.3614 25.1017V11.9457H74.1494C72.8667 11.9457 72.2254 11.391 72.2254 10.2817C72.2254 9.18969 72.8667 8.64369 74.1494 8.64369H86.6294C87.9121 8.64369 88.5534 9.18969 88.5534 10.2817C88.5534 11.391 87.9121 11.9457 86.6294 11.9457H82.4174V25.1017C82.4174 25.7084 82.2354 26.1937 81.8714 26.5577C81.5074 26.9217 81.0134 27.1037 80.3894 27.1037ZM95.5212 13.9477C96.0412 13.913 96.4485 14.0344 96.7432 14.3117C97.0552 14.5717 97.2112 14.9704 97.2112 15.5077C97.2112 16.0797 97.0725 16.5044 96.7952 16.7817C96.5179 17.059 96.0239 17.2324 95.3132 17.3017L94.5332 17.3797C93.5799 17.4837 92.8865 17.7957 92.4532 18.3157C92.0372 18.8357 91.8292 19.503 91.8292 20.3177V25.2837C91.8292 25.8904 91.6385 26.3497 91.2572 26.6617C90.8932 26.9737 90.4339 27.1297 89.8792 27.1297C89.3072 27.1297 88.8305 26.9737 88.4492 26.6617C88.0852 26.3497 87.9032 25.8904 87.9032 25.2837V15.7417C87.9032 15.1697 88.0939 14.7277 88.4752 14.4157C88.8565 14.1037 89.3159 13.9477 89.8532 13.9477C90.3732 13.9477 90.8065 14.1037 91.1532 14.4157C91.4999 14.7104 91.6732 15.1264 91.6732 15.6637V16.3657C91.9852 15.6204 92.4532 15.0484 93.0772 14.6497C93.7185 14.251 94.4119 14.0257 95.1572 13.9737L95.5212 13.9477ZM103.987 27.1817C102.67 27.1817 101.517 26.913 100.529 26.3757C99.5408 25.8384 98.7782 25.0757 98.2408 24.0877C97.7208 23.0997 97.4608 21.9384 97.4608 20.6037C97.4608 19.269 97.7382 18.099 98.2928 17.0937C98.8648 16.071 99.6622 15.2824 100.685 14.7277C101.708 14.173 102.886 13.8957 104.221 13.8957C104.914 13.8957 105.608 13.991 106.301 14.1817C107.012 14.3724 107.644 14.641 108.199 14.9877C108.736 15.317 109.005 15.8024 109.005 16.4437C109.005 16.8944 108.901 17.267 108.693 17.5617C108.485 17.839 108.208 17.9777 107.861 17.9777C107.636 17.9777 107.419 17.943 107.211 17.8737C107.02 17.787 106.76 17.6657 106.431 17.5097C106.067 17.319 105.738 17.1717 105.443 17.0677C105.166 16.9637 104.845 16.9117 104.481 16.9117C103.51 16.9117 102.765 17.2237 102.245 17.8477C101.742 18.4544 101.491 19.347 101.491 20.5257C101.491 21.7044 101.742 22.6057 102.245 23.2297C102.765 23.8537 103.51 24.1657 104.481 24.1657C104.845 24.1657 105.166 24.1224 105.443 24.0357C105.72 23.9317 106.058 23.7757 106.457 23.5677C106.786 23.4117 107.046 23.299 107.237 23.2297C107.428 23.143 107.636 23.0997 107.861 23.0997C108.19 23.0997 108.459 23.247 108.667 23.5417C108.892 23.8364 109.005 24.209 109.005 24.6597C109.005 25.301 108.736 25.7777 108.199 26.0897C107.644 26.4364 107.003 26.705 106.275 26.8957C105.547 27.0864 104.784 27.1817 103.987 27.1817ZM122.971 23.9317C123.369 24.313 123.569 24.7464 123.569 25.2317C123.569 25.717 123.387 26.1504 123.022 26.5317C122.676 26.913 122.268 27.1037 121.8 27.1037C121.35 27.1037 120.934 26.9217 120.553 26.5577L114.858 21.2797V25.2577C114.858 25.8644 114.668 26.3237 114.286 26.6357C113.922 26.9477 113.463 27.1037 112.908 27.1037C112.336 27.1037 111.86 26.9477 111.478 26.6357C111.114 26.3237 110.932 25.8644 110.932 25.2577V10.3597C110.932 9.75303 111.114 9.29369 111.478 8.98169C111.86 8.66969 112.336 8.51369 112.908 8.51369C113.463 8.51369 113.922 8.66969 114.286 8.98169C114.668 9.29369 114.858 9.75303 114.858 10.3597V19.6677L120.058 14.5457C120.44 14.1644 120.865 13.9737 121.333 13.9737C121.818 13.9737 122.243 14.1557 122.607 14.5197C122.97 14.8664 123.152 15.2824 123.152 15.7677C123.152 16.2184 122.953 16.643 122.554 17.0417L119.096 20.3437L122.971 23.9317Z" fill="black"/>
<defs>
<linearGradient id="paint0_linear" x1="9.54047" y1="21.0651" x2="37.696" y2="21.0651" gradientUnits="userSpaceOnUse">
<stop stop-color="#403BEB"/>
<stop offset="1" stop-color="#22B7A0"/>
</linearGradient>
<linearGradient id="paint1_linear" x1="-1.98013e-08" y1="17.7131" x2="32.4198" y2="17.7131" gradientUnits="userSpaceOnUse">
<stop stop-color="#403BEB"/>
<stop offset="1" stop-color="#22B7A0"/>
</linearGradient>
<linearGradient id="paint2_linear" x1="2.49215" y1="16.3664" x2="27.8689" y2="16.3664" gradientUnits="userSpaceOnUse">
<stop stop-color="#403BEB"/>
<stop offset="1" stop-color="#22B7A0"/>
</linearGradient>
</defs>
</svg>
