<?xml version="1.0" standalone="no"?>
<!DOCTYPE svg PUBLIC "-//W3C//DTD SVG 20010904//EN"
 "http://www.w3.org/TR/2001/REC-SVG-20010904/DTD/svg10.dtd">
<svg version="1.0" xmlns="http://www.w3.org/2000/svg"
 width="260.000000pt" height="260.000000pt" viewBox="0 0 260.000000 260.000000"
 preserveAspectRatio="xMidYMid meet">
<metadata>
Created by potrace 1.14, written by Peter Selinger 2001-2017
</metadata>
<g transform="translate(0.000000,260.000000) scale(0.100000,-0.100000)"
fill="#000000" stroke="none">
<path d="M695 2542 c-139 -63 -287 -178 -394 -307 -69 -82 -181 -269 -181
-301 0 -7 -3 -14 -8 -16 -14 -6 -76 -204 -86 -278 -3 -19 -8 -46 -12 -60 -3
-14 -8 -92 -9 -175 -3 -135 5 -223 30 -340 3 -16 8 -40 11 -53 22 -105 121
-318 202 -432 130 -185 361 -358 567 -423 131 -42 334 -58 450 -36 84 16 88
17 160 39 230 72 451 245 594 465 42 64 115 216 136 280 9 28 19 57 22 65 3 8
7 22 8 30 2 8 6 26 10 40 14 51 26 116 30 165 4 39 3 44 -4 22 -5 -15 -12 -42
-14 -60 -3 -18 -15 -63 -27 -102 -130 -417 -453 -720 -840 -790 -105 -19 -293
-13 -396 14 -331 85 -603 341 -740 693 -19 48 -36 98 -38 110 -3 13 -5 23 -6
23 -1 0 -3 7 -5 15 -1 8 -8 40 -14 70 -35 175 -33 368 5 545 74 335 289 639
554 784 86 47 83 53 -5 13z"/>
<path d="M1107 2564 c-1 -1 -30 -5 -65 -8 -133 -14 -314 -89 -431 -179 -226
-174 -376 -436 -425 -742 -25 -158 -10 -379 35 -535 18 -62 73 -195 81 -198 4
-2 8 -9 8 -16 0 -25 120 -194 185 -259 396 -400 952 -389 1360 27 l70 71 -1
738 c0 405 -3 740 -7 743 -3 3 -19 -21 -36 -54 -59 -116 -175 -274 -287 -389
l-41 -42 0 -595 c0 -615 0 -626 -39 -626 -40 0 -41 23 -40 585 1 297 0 545 -2
552 -3 8 -18 3 -45 -15 -23 -15 -44 -29 -47 -33 -17 -20 -226 -129 -248 -129
-6 0 -15 -8 -20 -17 -4 -10 -7 -227 -6 -483 0 -256 -3 -475 -7 -487 -9 -25
-52 -32 -66 -10 -4 6 -8 223 -8 482 -1 406 -3 470 -15 467 -45 -9 -143 -68
-191 -116 -52 -53 -122 -165 -133 -216 -22 -100 -27 -139 -28 -242 -1 -99 -4
-120 -19 -134 -16 -14 -20 -15 -40 -1 -12 9 -45 47 -74 86 -234 315 -286 756
-132 1131 17 41 35 78 40 81 5 3 7 9 5 11 -6 10 100 162 152 220 127 140 331
256 501 284 114 19 311 8 382 -21 9 -4 17 -3 17 2 0 10 -137 50 -205 59 -47 6
-173 12 -178 8z"/>
<path d="M2257 2233 c-3 -5 -8 -27 -11 -48 -3 -22 -16 -101 -30 -175 -13 -74
-27 -151 -30 -170 -3 -19 -8 -46 -11 -60 -3 -14 -7 -38 -10 -55 -3 -16 -12
-72 -21 -123 -9 -51 -14 -96 -11 -99 4 -3 34 6 67 21 34 14 65 26 69 26 16 0
22 -288 8 -385 -9 -70 -26 -155 -31 -164 -3 -4 -8 -23 -11 -41 -8 -45 -66
-194 -106 -271 -59 -114 -132 -212 -229 -309 -141 -142 -292 -235 -462 -284
-121 -35 -139 -38 -278 -41 -102 -3 -145 0 -230 19 -58 12 -115 28 -127 34
-12 7 -28 12 -35 12 -22 -1 52 -36 133 -63 122 -41 229 -56 369 -52 69 2 136
6 150 9 274 62 441 150 622 329 208 206 349 497 396 817 3 19 5 121 6 226 1
187 1 192 21 189 51 -9 135 -13 135 -8 0 5 -329 664 -335 671 -2 2 -5 -1 -8
-5z"/>
<path d="M710 146 c0 -3 9 -10 20 -16 11 -6 20 -8 20 -6 0 3 -9 10 -20 16 -11
6 -20 8 -20 6z"/>
</g>
</svg>
