<svg width="349" height="114" viewBox="0 0 349 114" fill="none" xmlns="http://www.w3.org/2000/svg">
<path d="M259.53 72.3989C259.53 78.898 254.221 84.2072 247.721 84.2072C241.222 84.2072 235.913 78.898 235.913 72.3989C235.913 65.8998 241.222 60.5906 247.721 60.5906H259.53V72.3989Z" fill="#E01E5A"/>
<path d="M265.479 72.3989C265.479 65.8998 270.788 60.5906 277.288 60.5906C283.787 60.5906 289.096 65.8998 289.096 72.3989V101.965C289.096 108.465 283.787 113.774 277.288 113.774C270.788 113.774 265.479 108.465 265.479 101.965V72.3989Z" fill="#E01E5A"/>
<path d="M277.288 24.6166C270.789 24.6166 265.479 19.3074 265.479 12.8083C265.479 6.30915 270.789 1 277.288 1C283.787 1 289.096 6.30915 289.096 12.8083V24.6166H277.288Z" fill="#36C5F0"/>
<path d="M277.288 30.5665C283.787 30.5665 289.096 35.8756 289.096 42.3748C289.096 48.8739 283.787 54.183 277.288 54.183H247.721C241.222 54.183 235.913 48.8739 235.913 42.3748C235.913 35.8756 241.222 30.5665 247.721 30.5665H277.288Z" fill="#36C5F0"/>
<path d="M325.07 42.3748C325.07 35.8756 330.379 30.5665 336.878 30.5665C343.377 30.5665 348.687 35.8756 348.687 42.3748C348.687 48.8739 343.377 54.183 336.878 54.183H325.07V42.3748Z" fill="#2EB67D"/>
<path d="M319.12 42.3748C319.12 48.8739 313.811 54.183 307.312 54.183C300.813 54.183 295.503 48.8739 295.503 42.3748V12.8083C295.503 6.30915 300.813 1 307.312 1C313.811 1 319.12 6.30915 319.12 12.8083V42.3748Z" fill="#2EB67D"/>
<path d="M307.312 90.1571C313.811 90.1571 319.12 95.4662 319.12 101.965C319.12 108.465 313.811 113.774 307.312 113.774C300.813 113.774 295.504 108.465 295.504 101.965V90.1571H307.312Z" fill="#ECB22E"/>
<path d="M307.312 84.2072C300.813 84.2072 295.504 78.898 295.504 72.3989C295.504 65.8998 300.813 60.5906 307.312 60.5906H336.879C343.378 60.5906 348.687 65.8998 348.687 72.3989C348.687 78.898 343.378 84.2072 336.879 84.2072H307.312Z" fill="#ECB22E"/>
<path d="M150.676 54.2092L190.482 54.2091L178.164 41.7641C177.085 40.6745 177.085 38.907 178.164 37.8176C179.243 36.7275 180.992 36.7275 182.07 37.8176L199.104 55.0265C200.183 56.116 200.183 57.8836 199.104 58.9729L182.07 76.1825C181.531 76.7278 180.824 77 180.117 77C179.41 77 178.703 76.7278 178.164 76.1825C177.085 75.093 177.085 73.3255 178.164 72.2363L190.482 59.7905H150.676C149.151 59.7905 147.914 58.5409 147.914 56.9998C147.914 55.4586 149.151 54.2092 150.676 54.2092Z" fill="#BCB1CC"/>
<path d="M97.5182 18.1109L92.1943 48.0083C92.1833 48.0681 92.1874 48.13 92.2057 48.1875C92.2236 48.2451 92.2555 48.2962 92.2976 48.3354C92.3397 48.3748 92.3904 48.4008 92.4443 48.411C92.4987 48.4211 92.5545 48.4149 92.6057 48.393L98.2976 46.0145C98.3113 46.1022 98.325 46.1929 98.3378 46.277C99.7046 55.8261 98.703 65.6072 95.4407 74.5734C92.1778 83.5396 86.7771 91.3527 79.8167 97.1766C72.8559 103 64.5978 106.615 55.926 107.633C47.2547 108.652 38.4967 107.036 30.59 102.959C38.8807 108.057 48.2962 110.471 57.7636 109.924C67.2312 109.378 76.3702 105.894 84.1387 99.8699C91.9077 93.8453 97.9941 85.5228 101.704 75.8496C105.415 66.1769 106.6 55.5427 105.125 45.1595L111.681 45.7494C111.737 45.7543 111.792 45.7423 111.842 45.7148C111.892 45.6873 111.934 45.6453 111.964 45.5933C111.994 45.5412 112.011 45.4811 112.013 45.4193C112.014 45.3576 112.001 45.2965 111.973 45.2426L98.0873 18.0075C98.0562 17.9471 98.0092 17.8986 97.9525 17.8687C97.8958 17.8387 97.8322 17.8287 97.7705 17.8399C97.7084 17.8512 97.6512 17.8832 97.606 17.9316C97.5607 17.9801 97.5301 18.0427 97.5182 18.1109Z" fill="url(#paint0_linear)"/>
<path d="M87.3499 80.4849C83.0494 86.5495 77.5262 91.412 71.2245 94.682C64.9224 97.952 58.0169 99.5389 51.062 99.3148C44.1069 99.0908 37.296 97.0625 31.1759 93.3926C25.0557 89.7222 19.7966 84.5126 15.8207 78.1814C11.8447 71.8507 9.26257 64.5743 8.28139 56.9365C7.30026 49.299 7.94742 41.5127 10.171 34.2025C12.3946 26.8924 16.1326 20.2619 21.0852 14.8431C26.0378 9.42432 32.067 5.36812 38.689 3C30.1559 5.32532 22.384 10.2631 16.26 17.2499C10.1359 24.2368 5.90635 32.9915 4.05373 42.5152C2.2011 52.039 2.80003 61.9484 5.78219 71.1128C8.76437 80.2776 14.0097 88.328 20.9198 94.3465C27.8298 100.365 36.1264 104.109 44.8631 105.151C53.5998 106.193 62.4248 104.492 70.3313 100.24C78.2379 95.9891 84.9076 89.3599 89.5797 81.1083C94.2513 72.8567 96.7375 63.3153 96.7544 53.5727C96.1268 63.3868 92.8498 72.764 87.3499 80.4849Z" fill="url(#paint1_linear)"/>
<path d="M77.5646 28.3705C74.8224 32.243 71.704 35.769 68.2657 38.885C68.2309 38.9167 68.2026 38.9567 68.1834 39.0019C68.1642 39.0471 68.1541 39.0965 68.1541 39.1466V87.5231C68.1541 87.9124 68.0426 88.2915 67.8355 88.6057C67.6284 88.9204 67.3368 89.1536 67.0027 89.2722L66.967 89.2848C66.7193 89.373 66.4564 89.3948 66.1995 89.3487C65.9426 89.3031 65.699 89.1901 65.4892 89.0203C65.2789 88.85 65.108 88.6275 64.99 88.3705C64.8721 88.1131 64.8108 87.8287 64.8108 87.5404V42.4384C64.8108 42.3763 64.7957 42.3155 64.7669 42.2624C64.7382 42.2093 64.6966 42.1661 64.6467 42.1374C64.5974 42.1087 64.5416 42.0956 64.4858 42.0997C64.4301 42.1037 64.3761 42.1245 64.3304 42.1601C59.7776 45.6358 54.8144 48.3987 49.5809 50.3706C49.5206 50.3931 49.468 50.4362 49.4305 50.4937C49.3935 50.5512 49.3734 50.6201 49.3734 50.6909V89.7612C49.3734 90.0324 49.319 90.3005 49.2143 90.5453C49.1097 90.7906 48.9574 91.007 48.7687 91.1793C48.5795 91.3517 48.3584 91.4748 48.1212 91.5412C47.8839 91.6071 47.6364 91.6142 47.3964 91.5615L47.3315 91.5473C46.9572 91.4652 46.6203 91.2412 46.3785 90.9138C46.1367 90.5864 46.005 90.1763 46.0059 89.7531C46.0146 85.5465 46.0233 79.8828 46.0297 79.8868V52.0203C46.0297 51.9683 46.0189 51.917 45.9981 51.8704C45.9774 51.8238 45.9472 51.7831 45.91 51.7515C45.8728 51.7199 45.8295 51.6982 45.7835 51.6882C45.7375 51.6781 45.69 51.6799 45.6448 51.6934L45.4935 51.7375C41.224 52.9815 37.4463 55.7581 34.7504 59.6338C32.0545 63.5099 30.5921 68.2664 30.5918 73.1608V79.5777C30.5926 79.936 30.4986 80.2872 30.3214 80.5868C30.1442 80.8868 29.8916 81.1225 29.5949 81.2649C29.2982 81.4068 28.9703 81.4499 28.6519 81.3875C28.3335 81.3257 28.0385 81.1615 27.8034 80.9152C21.246 73.9271 17.0765 64.6346 16.0053 54.6203C14.9341 44.6062 17.0275 34.49 21.9288 25.9951C26.8302 17.5003 34.2362 11.1524 42.8853 8.03286C51.5342 4.91329 60.8911 5.21506 69.3622 8.88678C62.6926 5.37131 55.2961 3.8986 47.94 4.62143C40.5839 5.34425 33.5362 8.23627 27.5281 12.9975C21.52 17.7587 16.7704 24.2156 13.7719 31.6984C10.7735 39.1812 9.63543 47.4172 10.4759 55.5523C11.3163 63.6868 14.1046 71.4244 18.5515 77.9614C22.9985 84.4989 28.9419 89.5975 35.7655 92.7292C42.589 95.8603 50.044 96.9105 57.3568 95.7706C64.67 94.6303 71.5742 91.341 77.3543 86.2444C79.3706 84.7017 81.2516 82.9516 82.9712 81.0171L83.1518 80.8027C83.4366 80.4641 83.5947 80.0181 83.5938 79.5549V19.8848C83.5938 19.8848 83.5938 19.6719 83.5938 19.3896C83.5943 19.3142 83.5719 19.2407 83.5307 19.1807C83.4891 19.1208 83.4311 19.0778 83.3653 19.0586C83.2994 19.0394 83.2295 19.0451 83.1669 19.0746C83.1043 19.1041 83.0526 19.1559 83.0192 19.2219C81.429 22.4312 79.6046 25.491 77.5646 28.3705Z" fill="url(#paint2_linear)"/>
<defs>
<linearGradient id="paint0_linear" x1="30.59" y1="63.918" x2="112.013" y2="63.918" gradientUnits="userSpaceOnUse">
<stop stop-color="#403BEB"/>
<stop offset="1" stop-color="#22B7A0"/>
</linearGradient>
<linearGradient id="paint1_linear" x1="3" y1="54.2245" x2="96.7544" y2="54.2245" gradientUnits="userSpaceOnUse">
<stop stop-color="#403BEB"/>
<stop offset="1" stop-color="#22B7A0"/>
</linearGradient>
<linearGradient id="paint2_linear" x1="10.207" y1="50.3299" x2="83.5938" y2="50.3299" gradientUnits="userSpaceOnUse">
<stop stop-color="#403BEB"/>
<stop offset="1" stop-color="#22B7A0"/>
</linearGradient>
</defs>
</svg>
